<svg version="1.1" preserveAspectRatio="none" xmlns="http://www.w3.org/2000/svg" width="500" height="500" viewBox="0 0 500 500"><rect width="100%" height="100%" fill="#FFFFFF" fill-opacity="1"/><svg viewBox="128.5524 388.8661 374.1999 253.265" width="333" height="225.38019117589286" x="83.5px" y="137.3099px" xmlns="http://www.w3.org/2000/svg" xmlns:xlink="http://www.w3.org/1999/xlink" preserveAspectRatio="none"><defs></defs><style>.aLgOaV3zRcolors-3 {fill:#9C8B58;fill-opacity:1;}.aLgOaV3zRcolors-4 {fill:#2C3E57;fill-opacity:1;}.aLgOaV3zRcolors-5 {fill:#C8B889;fill-opacity:1;}.aLgOaV3zRcolors-6 {fill:#9C8B58;fill-opacity:1;}.aLgOaV3zRcolors-7 {fill:#2C3E57;fill-opacity:1;}.companyName {fill:#1A1245;fill-opacity:1;}.icon1 {fill:#9C8B58;fill-opacity:1;}.icon2 {fill:#2C3E57;fill-opacity:1;}.icon3 {fill:#C8B889;fill-opacity:1;}.icon3-str {stroke:#C8B889;stroke-opacity:1;}.text {fill:#1A1245;fill-opacity:1;}</style><g opacity="1" transform="rotate(0 241.0531 610.1311)">
<svg width="149.1985" height="32" x="241.0531" y="610.1311" version="1.1" preserveAspectRatio="none" viewBox="3.8672 -35.0391 206.1406 44.2188">
  <g transform="matrix(1 0 0 1 0 0)" class="text"><path id="id-6izo4zJp11" d="M7.66 0L3.87 0L3.87-29.80L7.66-29.80L7.66-16.91L21.41-16.91L21.41-29.80L25.20-29.80L25.20 0L21.41 0L21.41-13.75L7.66-13.75L7.66 0Z M35.58-10.74L35.58-10.74Q35.58-6.80 37.33-4.59Q39.09-2.38 41.63-2.38L41.63-2.38Q44.13-2.38 45.89-4.59Q47.65-6.80 47.65-10.74L47.65-10.74Q47.65-14.77 45.89-16.95Q44.13-19.14 41.63-19.14L41.63-19.14Q39.13-19.14 37.35-16.97Q35.58-14.80 35.58-10.74ZM31.82-10.74L31.82-10.74Q31.82-15.63 34.36-18.93Q36.90-22.23 41.63-22.23L41.63-22.23Q46.28-22.23 48.84-18.93Q51.40-15.63 51.40-10.74L51.40-10.74Q51.40-8.71 50.87-6.80Q50.34-4.88 49.27-3.14Q48.19-1.41 46.20-0.35Q44.21 0.70 41.63 0.70L41.63 0.70Q39.05 0.70 37.08-0.33Q35.11-1.37 33.99-3.09Q32.88-4.80 32.35-6.74Q31.82-8.67 31.82-10.74Z M58.53-18.44L54.90-18.44L54.90-21.52L58.53-21.52L58.53-28.24L62.20-28.24L62.20-21.52L67.60-21.52L67.60-18.44L62.20-18.44L62.20-6.52Q62.20-4.69 62.91-3.91Q63.61-3.13 65.13-3.13L65.13-3.13L67.63-3.13L67.63 0L64.67 0Q58.53 0 58.53-6.21L58.53-6.21L58.53-18.44Z M88.43 6.60L84.76 6.60L84.76-35.04L88.43-35.04L88.43 6.60Z M105.75-5.86L105.75-5.86L109.19-7.07Q110.36-5 112.41-3.79Q114.47-2.58 117.16-2.58L117.16-2.58Q120.05-2.58 121.85-3.98Q123.65-5.39 123.65-7.77L123.65-7.77Q123.65-9.02 123.12-9.98Q122.59-10.94 121.46-11.64Q120.33-12.34 119.33-12.77Q118.33-13.20 116.65-13.75L116.65-13.75Q112.00-15.27 110.29-16.37L110.29-16.37Q106.77-18.63 106.77-22.58L106.77-22.58Q106.77-26.17 109.56-28.34Q112.36-30.51 116.93-30.51L116.93-30.51Q120.52-30.51 123.14-28.85Q125.75-27.19 126.93-24.65L126.93-24.65L123.68-23.55Q121.30-27.27 116.85-27.27L116.85-27.27Q114.00-27.27 112.34-25.98Q110.68-24.69 110.68-22.58L110.68-22.58Q110.68-21.37 111.26-20.43Q111.85-19.49 113.06-18.81Q114.27-18.13 115.36-17.70Q116.46-17.27 118.25-16.68L118.25-16.68Q118.76-16.52 119.00-16.45L119.00-16.45Q120.87-15.82 122.18-15.21Q123.49-14.61 124.84-13.61Q126.18-12.62 126.87-11.19Q127.55-9.77 127.55-7.89L127.55-7.89Q127.55-3.83 124.68-1.56Q121.81 0.70 117.08 0.70L117.08 0.70Q113.02 0.70 110.11-1.07Q107.20-2.85 105.75-5.86Z M137.07-10.78L137.07-10.78Q137.07-6.99 138.58-4.69Q140.08-2.38 142.78-2.38L142.78-2.38Q145.31-2.38 146.97-4.63Q148.63-6.88 148.63-10.78L148.63-10.78Q148.63-14.49 147.05-16.82Q145.47-19.14 142.78-19.14L142.78-19.14Q140.20-19.14 138.63-16.80Q137.07-14.45 137.07-10.78ZM137.07 9.18L133.44 9.18L133.44-21.52L136.95-21.52L136.95-18.01Q137.85-19.88 139.51-21.05Q141.17-22.23 143.28-22.23L143.28-22.23Q147.23-22.23 149.79-19.12Q152.35-16.02 152.35-10.78L152.35-10.78Q152.35-5.16 149.63-2.23Q146.92 0.70 143.28 0.70L143.28 0.70Q140.98 0.70 139.38-0.45Q137.78-1.60 137.07-3.28L137.07-3.28L137.07 9.18Z M162.76-25.78L158.43-25.78L158.43-30.23L162.76-30.23L162.76-25.78ZM162.41 0L158.82 0L158.82-21.52L162.41-21.52L162.41 0Z M168.85-10.74L168.85-10.74Q168.85-15.90 171.50-19.06Q174.16-22.23 178.57-22.23L178.57-22.23Q181.58-22.23 183.67-20.47Q185.76-18.71 186.42-16.37L186.42-16.37L183.30-15.47Q182.75-16.99 181.50-18.07Q180.25-19.14 178.61-19.14L178.61-19.14Q175.84-19.14 174.22-16.76Q172.60-14.38 172.60-10.74L172.60-10.74Q172.60-6.88 174.30-4.63Q176.00-2.38 178.61-2.38L178.61-2.38Q180.41-2.38 181.84-3.57Q183.26-4.77 183.85-6.33L183.85-6.33L186.97-5.39Q186.19-2.93 183.91-1.11Q181.62 0.70 178.57 0.70L178.57 0.70Q174.24 0.70 171.54-2.40Q168.85-5.51 168.85-10.74Z M198.48 0L190.20-21.52L194.34-21.52L198.52-9.45Q199.66-6.17 200.20-4.18L200.20-4.18L200.36-4.18Q201.49-7.93 201.96-9.45L201.96-9.45L205.91-21.52L210.01-21.52L200.87 3.32Q199.70 6.56 198.00 7.87Q196.30 9.18 193.84 9.18L193.84 9.18L192.55 9.18L192.55 6.13L193.25 6.13Q194.85 6.13 195.91 5.31Q196.96 4.49 197.70 2.38L197.70 2.38L198.48 0Z"/></g>
</svg>
</g><g opacity="1" transform="rotate(0 128.5524 506.1311)">
<svg width="374.1999" height="80" x="128.5524" y="506.1311" version="1.1" preserveAspectRatio="none" viewBox="4.5703 -29.3359 140.5078 30.0391">
  <g transform="matrix(1 0 0 1 0 0)" class="companyName"><path id="id-D6z1nYkh7" d="M6.37 0L4.57 0L4.57-28.16L20.98-28.16L20.98-26.60L6.37-26.60L6.37-15L19.49-15L19.49-13.48L6.37-13.48L6.37 0Z M26.13-10.04L26.13-10.04Q26.13-5.94 28.07-3.36Q30-0.78 33.13-0.78L33.13-0.78Q36.21-0.78 38.16-3.38Q40.12-5.98 40.12-10.04L40.12-10.04Q40.12-14.18 38.13-16.70Q36.13-19.22 33.13-19.22L33.13-19.22Q30.12-19.22 28.13-16.72Q26.13-14.22 26.13-10.04ZM24.34-10.04L24.34-10.04Q24.34-14.69 26.68-17.70Q29.02-20.70 33.13-20.70L33.13-20.70Q37.15-20.70 39.53-17.70Q41.91-14.69 41.91-10.04L41.91-10.04Q41.91-7.97 41.37-6.09Q40.82-4.22 39.79-2.68Q38.75-1.13 37.03-0.21Q35.31 0.70 33.13 0.70L33.13 0.70Q28.87 0.70 26.60-2.46Q24.34-5.63 24.34-10.04Z M47.73-10.04L47.73-10.04Q47.73-5.94 49.67-3.36Q51.60-0.78 54.73-0.78L54.73-0.78Q57.81-0.78 59.77-3.38Q61.72-5.98 61.72-10.04L61.72-10.04Q61.72-14.18 59.73-16.70Q57.73-19.22 54.73-19.22L54.73-19.22Q51.72-19.22 49.73-16.72Q47.73-14.22 47.73-10.04ZM45.94-10.04L45.94-10.04Q45.94-14.69 48.28-17.70Q50.63-20.70 54.73-20.70L54.73-20.70Q58.75-20.70 61.13-17.70Q63.52-14.69 63.52-10.04L63.52-10.04Q63.52-7.97 62.97-6.09Q62.42-4.22 61.39-2.68Q60.35-1.13 58.63-0.21Q56.91 0.70 54.73 0.70L54.73 0.70Q50.47 0.70 48.20-2.46Q45.94-5.63 45.94-10.04Z M67.54-10.04L67.54-10.04Q67.54-15 69.86-17.85Q72.19-20.70 75.86-20.70L75.86-20.70Q78.32-20.70 80.10-19.16Q81.88-17.62 82.54-15.43L82.54-15.43L82.54-29.34L84.30-29.34L84.30 0L82.58 0L82.58-4.41Q81.80-2.23 80.04-0.76Q78.28 0.70 75.82 0.70L75.82 0.70Q72.50 0.70 70.02-1.99Q67.54-4.69 67.54-10.04ZM69.34-10.04L69.34-10.04Q69.34-5.86 71.15-3.32Q72.97-0.78 76.02-0.78L76.02-0.78Q78.75-0.78 80.66-3.26Q82.58-5.74 82.58-10.04L82.58-10.04Q82.58-14.30 80.63-16.76Q78.67-19.22 75.98-19.22L75.98-19.22Q73.01-19.22 71.17-16.74Q69.34-14.26 69.34-10.04Z M90.04-10.16L90.04-10.16Q90.04-14.80 92.44-17.75Q94.84-20.70 98.83-20.70L98.83-20.70Q102.85-20.70 105.16-17.79Q107.46-14.88 107.46-10.66L107.46-10.66Q107.46-10.43 107.44-10.08Q107.42-9.73 107.42-9.49L107.42-9.49L91.84-9.49Q91.84-5.94 93.73-3.36Q95.63-0.78 98.95-0.78L98.95-0.78Q101.05-0.78 102.79-1.86Q104.53-2.93 105.43-4.57L105.43-4.57L106.95-4.02Q105.90-1.91 103.87-0.61Q101.84 0.70 98.95 0.70L98.95 0.70Q94.84 0.70 92.44-2.32Q90.04-5.35 90.04-10.16ZM91.88-10.86L91.88-10.86L105.66-10.86Q105.66-14.30 103.79-16.76Q101.91-19.22 98.83-19.22L98.83-19.22Q95.63-19.22 93.79-16.70Q91.95-14.18 91.88-10.86Z M111.09-3.52L111.09-3.52L112.46-4.30Q114.69-0.78 118.83-0.78L118.83-0.78Q121.41-0.78 123.01-1.86Q124.61-2.93 124.61-4.73L124.61-4.73Q124.61-5.43 124.41-5.98Q124.22-6.52 123.63-6.99Q123.05-7.46 122.66-7.73Q122.27-8.01 121.23-8.40Q120.20-8.79 119.75-8.95Q119.30-9.10 117.97-9.49L117.97-9.49Q116.60-9.92 115.66-10.31Q114.73-10.70 113.69-11.39Q112.66-12.07 112.13-13.07Q111.60-14.06 111.60-15.35L111.60-15.35Q111.60-17.81 113.61-19.26Q115.63-20.70 118.83-20.70L118.83-20.70Q121.17-20.70 123.07-19.53Q124.96-18.36 125.86-16.68L125.86-16.68L124.61-15.90Q123.75-17.34 122.23-18.28Q120.70-19.22 118.83-19.22L118.83-19.22Q116.33-19.22 114.86-18.14Q113.40-17.07 113.40-15.31L113.40-15.31Q113.40-13.44 114.90-12.38Q116.41-11.33 119.02-10.63L119.02-10.63Q120.55-10.20 121.60-9.80Q122.66-9.41 123.87-8.73Q125.08-8.05 125.72-7.03Q126.37-6.02 126.37-4.73L126.37-4.73Q126.37-2.42 124.39-0.86Q122.42 0.70 118.83 0.70L118.83 0.70Q113.59 0.70 111.09-3.52Z M129.80-3.52L129.80-3.52L131.17-4.30Q133.40-0.78 137.54-0.78L137.54-0.78Q140.12-0.78 141.72-1.86Q143.32-2.93 143.32-4.73L143.32-4.73Q143.32-5.43 143.13-5.98Q142.93-6.52 142.34-6.99Q141.76-7.46 141.37-7.73Q140.98-8.01 139.94-8.40Q138.91-8.79 138.46-8.95Q138.01-9.10 136.68-9.49L136.68-9.49Q135.31-9.92 134.38-10.31Q133.44-10.70 132.40-11.39Q131.37-12.07 130.84-13.07Q130.31-14.06 130.31-15.35L130.31-15.35Q130.31-17.81 132.32-19.26Q134.34-20.70 137.54-20.70L137.54-20.70Q139.88-20.70 141.78-19.53Q143.67-18.36 144.57-16.68L144.57-16.68L143.32-15.90Q142.46-17.34 140.94-18.28Q139.41-19.22 137.54-19.22L137.54-19.22Q135.04-19.22 133.57-18.14Q132.11-17.07 132.11-15.31L132.11-15.31Q132.11-13.44 133.61-12.38Q135.12-11.33 137.73-10.63L137.73-10.63Q139.26-10.20 140.31-9.80Q141.37-9.41 142.58-8.73Q143.79-8.05 144.43-7.03Q145.08-6.02 145.08-4.73L145.08-4.73Q145.08-2.42 143.11-0.86Q141.13 0.70 137.54 0.70L137.54 0.70Q132.30 0.70 129.80-3.52Z"/></g>
</svg>
</g><g opacity="1" transform="rotate(0 263.2644 388.8661)">
<svg width="104.776" height="87.265" x="263.2644" y="388.8661" version="1.1" preserveAspectRatio="none" viewBox="4.082607269287109 14.41723918914795 91.83000183105469 76.48275756835938">
  <g transform="matrix(1 0 0 1 0 0)" class="icon1"><g><path d="M14.3,54.8c-0.2-0.1-0.4-0.3-0.5-0.4C14.1,54.7,14.3,54.8,14.3,54.8z"></path><path d="M95.1,41.5C90.8,24.6,69,26.8,69,26.8c-5.7-10.6-15.8-12.1-15.8-12.1c-18.8-2.5-25.8,12.4-25.8,12.4   c-9.4-5.5-16.1-1.2-16.1-1.2C-4.2,38.4,9.5,51,13.4,54.1c-7.1-5.8-6.6-15-1.3-20.6c5.5-5.9,14.7-0.2,14.7-0.2s7.9-10.2,19.5-12.2   s17.6,11.4,17.6,11.4c8.9-5,24.8,0.2,24.7,12.8c-0.2,12.6-12.7,12.5-12.8,12.5c1.9-7.7,4.7-13.2,4.7-13.2   c-5.8,5.4-8.2,12.2-9.1,18.2l0,0l0,0c-0.2,1.1-0.3,2.1-0.3,3.1c-10.4-3.6-11.1-2.2-13-1.9c-6.8,0.8-14.3,1.8-14.3,1.8l-0.8,9.1   l-3.3-9.1c-1.3,2.9-15,1.8-15,1.8c3.7,3.7,14.4,2.2,14.4,2.2l3.9,8.9l3.4-10.6c11.7-4.3,20.9-1,24.7,0.8c0,4.8,0.8,8.2,0.8,8.2   c-9.6-2.4-21.5,2.5-21.5,2.5C18,88.2,21,72.2,21,72.2s-2.3,9.2,3.4,12.4c5.7,3.2,22.4-1.3,22.4-1.3s21.9-4.2,23.9-1.8   c2,2.3-0.8,3.5-0.8,3.5l0.7,5.9c8.9-2.2,5.4-8.6,5.4-8.6c-1.7-5-2-10.2-1.7-15.1C85.1,66.7,99.5,58.5,95.1,41.5z"></path><path d="M23.7,51.4c4.8,1.7,10.6-5,10.6-5s5.9,7,12,6.2c6.1-0.8,15.7-8.1,15.7-8.1c1,2.9,8.7,0.8,8.7,0.8   c-2.9,0.8-8.1-5.5-8.1-5.5c-13.9,15.9-29.4,2.7-29.4,2.7c-5.9,9.6-15.6,4.9-15.6,4.9c2,2.5,3.9,12.1,3.9,12.1   C23.7,57.5,23.7,51.4,23.7,51.4z"></path></g></g>
</svg>
</g></svg></svg>